# xmcd CD database file
#
# Track frame offsets:
#	150
#	48273
#	69927
#	90642
#	117873
#	132502
#	161817
#	184504
#	198432
#	224675
#	243704
#	285692
#	305687
#
# Disc length: 4670 seconds
#
# Revision: 4
# Processed by: cddbd v1.5.2PL0 Copyright (c) Steve Scherf et al.
# Submitted via: CDex 1.78
#
DISCID=c5123c0d
DTITLE=Popa Chubby - Big,Bad And Beautiful Live [CD 2)
DYEAR=2015
DGENRE=Blues Rock
TTITLE0=Rock On Blues Man
TTITLE1=Take Me Back To Amsterdam
TTITLE2=I Was Looking Back
TTITLE3=Love In Vain
TTITLE4=Brown Sugar
TTITLE5=Wild Horses
TTITLE6=Another 10 Years Gone
TTITLE7=Caffeine And Nicotine
TTITLE8=Daddy Played The Guitar And Mama Was A Disco Queen
TTITLE9=The Finger Bangin' Boogie
TTITLE10=People's Blues
TTITLE11=Noise Making Love Machine
TTITLE12=Somewhere Over The Rainbow
EXTD=YEAR: 2015
EXTT0=
EXTT1=
EXTT2=
EXTT3=
EXTT4=
EXTT5=
EXTT6=
EXTT7=
EXTT8=
EXTT9=
EXTT10=
EXTT11=
EXTT12=
PLAYORDER=
